<?xml version="1.0" encoding="UTF-8"?>
<svg id="Capa_2" data-name="Capa 2" xmlns="http://www.w3.org/2000/svg" viewBox="0 0 526.32 81.5">
  <defs>
    <style>
      .cls-1 {
        fill: #fff;
      }
    </style>
  </defs>
  <g id="Capa_1-2" data-name="Capa 1">
    <g>
      <path class="cls-1" d="M430.27,17.13h-26.46c5.17,5.17-2.56,57.49.97,64.22h-15.78c-4-5.67,4.88-58.37-.97-64.22h-24.51V.79h66.76v16.34Z"/>
      <path class="cls-1" d="M251.23,39.72c-9.7,11.15-43.14,26.92-48.6,41.64h-16.34c0-25.45,81.28-61.09,81.28-80.57v80.57h-16.34v-41.64Z"/>
      <path class="cls-1" d="M16.34,39.72c9.7,11.15,43.14,26.92,48.6,41.64h16.34C81.28,55.91,0,20.27,0,.79v80.57h16.34v-41.64Z"/>
      <path class="cls-1" d="M133.79,38.83C113.47,24.31,93.15,10.53,93.15.79v80.57h16.34v-41.64c2.4,2.76,6.25,5.8,10.77,9.03,4.15,2.97,8.86,6.11,13.53,9.34,4.67-3.23,9.38-6.37,13.53-9.34,4.52-3.24,8.37-6.28,10.76-9.03v41.64h16.34V.79c0,9.74-20.32,23.52-40.64,38.04Z"/>
      <path class="cls-1" d="M351.62,81.31h0c-.02-2.5-30.76-36-55.99-44.3l-.11,44.35h-16.07l.05-80.57s1.17,3.16,2.1,4.52c7.83,11.55,35.84,20.62,53.97,38.97l-.05-43.5h16.07l.05,80.57-.02-.05Z"/>
      <path class="cls-1" d="M523.46,25.5c-.36-.9-.75-1.79-1.16-2.66-6.54-13.53-20.48-22.84-37.94-22.84-24.44,0-42.21,18.44-42.21,40.96v.23c0,14.19,6.96,26.67,18.23,33.96.08.06.16.1.24.16,4.96,3.16,10.75,5.33,17.13,6.19,2.17-5.86,7.68-13.77,16.57-17.73,22.58-10.06,32.01-23.89,32.01-23.89-.1-5.07-1.1-9.92-2.86-14.37ZM468.96,60.28c-5.37-4.59-8.6-11.59-8.6-19.32v-.23c0-13.58,9.73-24.67,23.76-24.67,11.92,0,20.9,8.17,23.33,18.95-11.6,11.23-29.29,16.55-38.49,25.27Z"/>
    </g>
  </g>
</svg>