<?xml version="1.0" encoding="UTF-8"?>
<svg id="Capa_2" data-name="Capa 2" xmlns="http://www.w3.org/2000/svg" viewBox="0 0 324.33 211.97">
  <defs>
    <style>
      .cls-1 {
        fill: #f49f13;
      }
    </style>
  </defs>
  <g id="Capa_1-2" data-name="Capa 1">
    <g>
      <path class="cls-1" d="M160.24,61.98C127.14,38.31,94.03,15.87,94.03,0v131.25h26.62c4.67-12.6,21.95-25.69,39.58-37.9,17.63,12.21,34.91,25.3,39.58,37.9h26.62V0c0,15.87-33.1,38.31-66.2,61.98ZM120.65,92.32v-28.9c3.91,4.49,10.18,9.44,17.54,14.71-6.23,4.75-12.16,9.49-17.54,14.19ZM182.28,78.13c7.36-5.27,13.63-10.22,17.54-14.71v28.9c-5.38-4.7-11.31-9.45-17.54-14.19Z"/>
      <g>
        <path class="cls-1" d="M265.14,172.31h-16.3c3.19,3.19-1.58,35.43.6,39.58h-9.73c-2.46-3.49,3.01-35.97-.6-39.58h-15.11v-10.07h41.14v10.07Z"/>
        <path class="cls-1" d="M154.82,186.22c-5.98,6.87-26.59,16.59-29.95,25.66h-10.07c0-15.68,50.08-37.64,50.08-49.65v49.65h-10.07v-25.66Z"/>
        <path class="cls-1" d="M10.07,186.22c5.98,6.87,26.59,16.59,29.95,25.66h10.07c0-15.68-50.08-37.64-50.08-49.65v49.65h10.07v-25.66Z"/>
        <path class="cls-1" d="M82.44,185.68c-12.52-8.95-25.04-17.44-25.04-23.44v49.65h10.07v-25.66c1.48,1.7,3.85,3.57,6.64,5.57,2.56,1.83,5.46,3.76,8.34,5.75,2.88-1.99,5.78-3.92,8.34-5.75,2.78-2,5.16-3.87,6.63-5.57v25.66h10.07v-49.65c0,6-12.52,14.49-25.04,23.44Z"/>
        <path class="cls-1" d="M216.68,211.85h0c-.01-1.54-18.95-22.19-34.5-27.3l-.07,27.33h-9.9l.03-49.65s.72,1.95,1.29,2.79c4.83,7.11,22.08,12.71,33.26,24.02l-.03-26.81h9.9l.03,49.65v-.03Z"/>
        <path class="cls-1" d="M322.57,177.46c-.22-.56-.46-1.1-.72-1.64-4.03-8.34-12.62-14.07-23.38-14.07-15.06,0-26.01,11.37-26.01,25.24v.14c0,8.74,4.29,16.43,11.23,20.93.05.03.1.06.15.1,3.06,1.95,6.62,3.28,10.56,3.82,1.34-3.61,4.73-8.49,10.21-10.93,13.91-6.2,19.73-14.72,19.73-14.72-.06-3.13-.68-6.11-1.76-8.86ZM288.99,198.9c-3.31-2.83-5.3-7.14-5.3-11.91v-.14c0-8.37,6-15.2,14.64-15.2,7.34,0,12.88,5.03,14.38,11.68-7.15,6.92-18.05,10.2-23.72,15.57Z"/>
      </g>
    </g>
  </g>
</svg>