<?xml version="1.0" encoding="UTF-8"?>
<svg id="Capa_2" data-name="Capa 2" xmlns="http://www.w3.org/2000/svg" viewBox="0 0 32 31.72">
  <defs>
    <style>
      .cls-1 {
        fill: #f49f13;
      }
    </style>
  </defs>
  <g id="Capa_1-2" data-name="Capa 1">
    <path class="cls-1" d="M16,14.98C8,9.26,0,3.83,0,0v31.72h6.43c1.13-3.05,5.3-6.21,9.57-9.16,4.26,2.95,8.44,6.11,9.57,9.16h6.43V0c0,3.83-8,9.26-16,14.98ZM6.43,22.31v-6.99c.94,1.08,2.46,2.28,4.24,3.56-1.5,1.15-2.94,2.29-4.24,3.43ZM21.33,18.88c1.78-1.27,3.3-2.47,4.24-3.56v6.99c-1.3-1.14-2.73-2.28-4.24-3.43Z"/>
  </g>
</svg>